<svg width="235" height="171" viewBox="0 0 235 171" fill="none" xmlns="http://www.w3.org/2000/svg">
<path d="M71.4282 124.249V141.856" stroke="#FFA500" stroke-width="2" stroke-linecap="round"/>
<path d="M34.078 108.778L21.6279 121.228" stroke="#FFA500" stroke-width="2" stroke-linecap="round"/>
<path d="M18.6071 71.4282H1" stroke="#FFA500" stroke-width="2" stroke-linecap="round"/>
<path d="M34.078 34.0781L21.6279 21.628" stroke="#FFA500" stroke-width="2" stroke-linecap="round"/>
<path d="M71.4282 18.6071V1" stroke="#FFA500" stroke-width="2" stroke-linecap="round"/>
<path d="M108.778 34.0781L121.228 21.628" stroke="#FFA500" stroke-width="2" stroke-linecap="round"/>
<path d="M124.249 71.4282H141.856" stroke="#FFA500" stroke-width="2" stroke-linecap="round"/>
<path d="M108.778 108.778L121.228 121.228" stroke="#FFA500" stroke-width="2" stroke-linecap="round"/>
<path d="M71.4282 100.773C87.6351 100.773 100.773 87.6351 100.773 71.4282C100.773 55.2214 87.6351 42.0831 71.4282 42.0831C55.2214 42.0831 42.0831 55.2214 42.0831 71.4282C42.0831 87.6351 55.2214 100.773 71.4282 100.773Z" fill="#FFA500" stroke="#FFA500" stroke-width="2"/>
<path d="M234 120.728C234 93.7305 212.285 72.602 185.874 72.602C180.005 72.602 174.723 73.7758 169.441 75.5365C167.68 55.5819 151.247 39.1486 130.705 39.1486C108.99 39.1486 91.3829 56.7557 91.3829 78.471C91.3829 83.1663 92.5567 87.8615 93.7305 91.9698C91.9698 91.3829 89.6222 91.3829 87.8615 91.3829C66.1461 91.3829 48.5391 108.99 48.5391 130.705C48.5391 151.834 65.5592 169.441 86.6877 170.028H187.635C213.458 167.093 234 146.552 234 120.728Z" fill="#91C0F8" stroke="white" stroke-width="1.2" stroke-linejoin="round"/>
</svg>
